# xmcd CD database file
#
# Track frame offsets:
#	150
#	12011
#	25515
#	50939
#	69735
#	88897
#	100898
#	128232
#	141414
#	155090
#	166669
#	178776
#	198602
#	209761
#	223228
#	246057
#	260006
#	273095
#	288075
#	306845
#	316724
#	326815
#	339553
#
# Disc length: 4683 seconds
#
# Revision: 0
# Processed by: cddbd v1.5.2PL0 Copyright (c) Steve Scherf et al.
# Submitted via: CDex 1.51
#
DISCID=64124917
DTITLE=Zoot Sims - New Beat Bossa Nova Vol. 1 and 2
DYEAR=1962
DGENRE=Jazz
TTITLE0=Recado Bossa Nova Part 1
TTITLE1=Recado Bossa Nova Part 2
TTITLE2=Cano Canoe
TTITLE3=Cantando A Orquestra
TTITLE4=Ciume
TTITLE5=Maria Ninguém
TTITLE6=Sem Saudadés De Voce
TTITLE7=Barquinho De Papel
TTITLE8=Bernie' Tune
TTITLE9=Poquito Cantando
TTITLE10=Tickle Toe
TTITLE11=Lonesome Road
TTITLE12=Instant Samba
TTITLE13=They Call The Wind Maria
TTITLE14=Lover Come Back To Me
TTITLE15=Nature Boy
TTITLE16=Reaching For The Moon
TTITLE17=Don't Fool With Love
TTITLE18=I Got Rithm
TTITLE19=Recado Bossa Nova (Vocal Version)
TTITLE20=Don't Fool With Love (Vocal Version)
TTITLE21=You and I
TTITLE22=Zing Went The Strings Of My Heart
EXTD=YEAR: 1962
EXTT0=
EXTT1=
EXTT2=
EXTT3=
EXTT4=
EXTT5=
EXTT6=
EXTT7=
EXTT8=
EXTT9=
EXTT10=
EXTT11=
EXTT12=
EXTT13=
EXTT14=
EXTT15=
EXTT16=
EXTT17=
EXTT18=
EXTT19=
EXTT20=
EXTT21=
EXTT22=
PLAYORDER=
